<svg id="Laag_2" xmlns="http://www.w3.org/2000/svg" xmlns:xlink="http://www.w3.org/1999/xlink"
     viewBox="0 0 450 450">
    <defs>
        <style>.cls-1{stroke:#fff;stroke-miterlimit:10;stroke-width:0.5px;fill:url(#Naamloos_verloop_14);}</style>
        <linearGradient id="Naamloos_verloop_14" x1="225.16" y1="421.93" x2="225.16" y2="26"
                        gradientUnits="userSpaceOnUse">
            <stop offset="0" stop-color="#d7d7d7"/>
            <stop offset="1" stop-color="#fff"/>
        </linearGradient>
    </defs>
    <title>mask</title>
    <path class="cls-1"
          d="M412,237.18l0-.18-44.68-12c-1.14.09-2.25.21-3.35.36q0-1.68,0-3.36c9-54,17.76-113.89-13-150-28.47-33.41-89.79-46-132-46-43,0-87.38,8.46-116,43C73.18,105,65,170,83,225L38,237l.06.29c-19.4,7-25.81,42-18.06,81.71,8,41,29.87,95,55,95a24.72,24.72,0,0,0,2.47-.13l0,.13,1.26-.29a20.13,20.13,0,0,0,2.78-.64L134,401s7.75-6.34,13.69-21c13.78,14.43,27.35,26.63,38,36.81a18.56,18.56,0,0,0,13,5.16l55.08-.54a16.76,16.76,0,0,0,11.07-4.29,378.3,378.3,0,0,0,37.24-38.61c6,15.75,14.27,22.51,14.27,22.51l52.46,12.07a20.13,20.13,0,0,0,2.78.64l1.26.29,0-.13a24.72,24.72,0,0,0,2.47.13c25.13,0,47-54,55-95C438.11,279.06,431.59,243.9,412,237.18ZM128,225c-24,0-28-16-28-40s23-42,47-42,55-1,55,23S152,225,128,225Zm117-59c0-24,31-23,55-23s47,18,47,42-4,40-28,40S245,190,245,166Z"/>
</svg>